<?xml version="1.0" encoding="UTF-8" standalone="no"?>
<svg
   xmlns:dc="http://purl.org/dc/elements/1.1/"
   xmlns:cc="http://creativecommons.org/ns#"
   xmlns:rdf="http://www.w3.org/1999/02/22-rdf-syntax-ns#"
   xmlns:svg="http://www.w3.org/2000/svg"
   xmlns="http://www.w3.org/2000/svg"
   viewBox="0 0 481.33334 398.66666"
   height="398.66666"
   width="481.33334"
   xml:space="preserve"
   id="svg2"
   version="1.1"><metadata
     id="metadata8"><rdf:RDF><cc:Work
         rdf:about=""><dc:format>image/svg+xml</dc:format><dc:type
           rdf:resource="http://purl.org/dc/dcmitype/StillImage" /></cc:Work></rdf:RDF></metadata><defs
     id="defs6"><clipPath
       id="clipPath20"
       clipPathUnits="userSpaceOnUse"><path
         id="path18"
         d="M 0,0 H 361 V 299 H 0 Z" /></clipPath></defs><g
     transform="matrix(1.3333333,0,0,-1.3333333,0,398.66667)"
     id="g10"><g
       id="g12" /><g
       id="g14"><g
         clip-path="url(#clipPath20)"
         id="g16"><path
           id="path22"
           style="fill:#ffffff;fill-opacity:1;fill-rule:nonzero;stroke:none"
           d="M 0,0 H 361 V 299 H 0 Z" /></g></g><g
       id="g24"><path
         id="path26"
         style="fill:#d9d9d9;fill-opacity:1;fill-rule:nonzero;stroke:none"
         d="m 175,-4.411937e-6 h 11 V 299 h -11 z" /><path
         id="path28"
         style="fill:#d9d9d9;fill-opacity:1;fill-rule:nonzero;stroke:none"
         d="M 0,-4.411937e-6 H 175 V 299 H 0 Z" /><g
         transform="translate(64.45551,-25)"
         id="g30"><text
           id="text34"
           style="font-variant:normal;font-weight:normal;font-size:14px;font-family:Tahoma;-inkscape-font-specification:Tahoma;writing-mode:lr-tb;fill:#0078d7;fill-opacity:1;fill-rule:nonzero;stroke:none"
           transform="matrix(1,0,0,-1,0,299)"><tspan
             id="tspan32"
             y="0"
             x="0 7.9995999 15.0052 20.008801 28.0084 37.015999">CLIENT</tspan></text>
</g><path
         id="path36"
         style="fill:#d9d9d9;fill-opacity:1;fill-rule:nonzero;stroke:none"
         d="M 186,-4.411937e-6 H 361 V 299 H 186 Z" /><g
         transform="translate(248.4199,-25)"
         id="g38"><text
           id="text42"
           style="font-variant:normal;font-weight:normal;font-size:14px;font-family:Tahoma;-inkscape-font-specification:Tahoma;writing-mode:lr-tb;fill:#0078d7;fill-opacity:1;fill-rule:nonzero;stroke:none"
           transform="matrix(1,0,0,-1,0,299)"><tspan
             id="tspan40"
             y="0"
             x="0 7.9995999 15.9992 24.9928 32.992401 40.992001">SERVER</tspan></text>
</g><g
         transform="matrix(-7.874016e-5,0,0,-7.874016e-5,89.50008,251.5)"
         id="g44"><path
           id="path46"
           style="fill:none;stroke:#575757;stroke-width:12700;stroke-linecap:butt;stroke-linejoin:miter;stroke-miterlimit:8;stroke-dasharray:50800, 38100;stroke-dashoffset:0;stroke-opacity:1"
           d="M 0,0 1,2988000" /></g><g
         transform="matrix(7.874016e-5,0,0,-7.874016e-5,274.5,251.5)"
         id="g48"><path
           id="path50"
           style="fill:none;stroke:#575757;stroke-width:12700;stroke-linecap:butt;stroke-linejoin:miter;stroke-miterlimit:8;stroke-dasharray:50800, 38100;stroke-dashoffset:0;stroke-opacity:1"
           d="M 0,0 1,2988000" /></g><path
         id="path52"
         style="fill:#0078d7;fill-opacity:1;fill-rule:nonzero;stroke:none"
         d="m 116.4998,109 h 4 v -1 h -4 z m 7,0 h 4 v -1 h -4 z m 7,0 h 4 v -1 h -4 z m 7,0 h 4 v -1 h -4 z m 7,0 h 4 v -1 h -4 z m 7,0 h 4 v -1 h -4 z m 7,0 h 4 v -1 h -4 z m 7,0 h 4 v -1 h -4 z m 7,0 h 4 v -1 h -4 z m 7,0 h 4 v -1 h -4 z m 7,0 h 4 v -1 h -4 z m 7,0 h 4 v -1 h -4 z m 7,0 h 4 v -1 h -4 z m 7,-1e-4 h 4 v -1 h -4 z m 7,0 h 4 v -1 h -4 z m 7,0 h 4 v -1 h -4 z m 7,0 h 4 v -1 h -4 z m 7,0 h 4 v -1 h -4 z m 7,0 h 4 v -1 h -4 z m 7,0 h 4 v -1 h -4 z m 7,0 h 1.1779 v -1 h -1.1779 z M 117.5,105.5 l -6,3 6,3 z m 139.1775,5.9999 6,-3 -6,-3 z" /><g
         transform="translate(113.5917,-69)"
         id="g54"><text
           id="text58"
           style="font-variant:normal;font-weight:normal;font-size:11px;font-family:Tahoma;-inkscape-font-specification:Tahoma;writing-mode:lr-tb;fill:#0078d7;fill-opacity:1;fill-rule:nonzero;stroke:none"
           transform="matrix(1,0,0,-1,0,299)"><tspan
             id="tspan56"
             y="0"
             x="0 7.0004001 12.9998 18.999201 24.9986 29.997 35.996399 41.9958 46.994202 52.993599 56.991001 60.9884 67.9888 73.988197 79.987602 85.987 90.985397 96.984802 102.9842 108.9836 112.981 118.9804 124.9798 130.9792">Handshake (HTTP upgrade)</tspan></text>
</g><path
         id="path60"
         style="fill:#0078d7;fill-opacity:1;fill-rule:nonzero;stroke:none"
         d="m 116.4998,186 h 4 v -1 h -4 z m 7,0 h 4 v -1 h -4 z m 7,0 h 4 v -1 h -4 z m 7,0 h 4 v -1 h -4 z m 7,0 h 4 v -1 h -4 z m 7,0 h 4 v -1 h -4 z m 7,0 h 4 v -1 h -4 z m 7,0 h 4 v -1 h -4 z m 7,0 h 4 v -1 h -4 z m 7,0 h 4 v -1 h -4 z m 7,0 h 4 v -1 h -4 z m 7,0 h 4 v -1 h -4 z m 7,0 h 4 v -1 h -4 z m 7,-1e-4 h 4 v -1 h -4 z m 7,0 h 4 v -1 h -4 z m 7,0 h 4 v -1 h -4 z m 7,0 h 4 v -1 h -4 z m 7,0 h 4 v -1 h -4 z m 7,0 h 4 v -1 h -4 z m 7,0 h 4 v -1 h -4 z m 7,0 h 4 v -1 h -4 z M 117.5,182.5 l -6,3 6,3 z" /><g
         transform="translate(124.0291,-178)"
         id="g62"><text
           id="text66"
           style="font-variant:normal;font-weight:normal;font-size:11px;font-family:Tahoma;-inkscape-font-specification:Tahoma;writing-mode:lr-tb;fill:#0078d7;fill-opacity:1;fill-rule:nonzero;stroke:none"
           transform="matrix(1,0,0,-1,0,299)"><tspan
             id="tspan64"
             y="0"
             x="0 6.0005002">Bi</tspan></text>
</g><g
         transform="translate(133.0291,-178)"
         id="g68"><text
           id="text72"
           style="font-variant:normal;font-weight:normal;font-size:11px;font-family:Tahoma;-inkscape-font-specification:Tahoma;writing-mode:lr-tb;fill:#0078d7;fill-opacity:1;fill-rule:nonzero;stroke:none"
           transform="matrix(1,0,0,-1,0,299)"><tspan
             id="tspan70"
             y="0"
             x="0">-</tspan></text>
</g><g
         transform="translate(137.0291,-178)"
         id="g74"><text
           id="text78"
           style="font-variant:normal;font-weight:normal;font-size:11px;font-family:Tahoma;-inkscape-font-specification:Tahoma;writing-mode:lr-tb;fill:#0078d7;fill-opacity:1;fill-rule:nonzero;stroke:none"
           transform="matrix(1,0,0,-1,0,299)"><tspan
             id="tspan76"
             y="0"
             x="0 6.0005002 8.9980001 12.9965 18.997 23.9965 27.995001 30.9925 36.993 42.9935 48.993999 51.991501 53.987999 62.991501 68.991997 73.991501 78.990997 84.991501 90.991997 96.9925">directional messages</tspan></text>
</g><g
         transform="translate(129.5851,-104)"
         id="g80"><text
           id="text84"
           style="font-variant:normal;font-weight:normal;font-size:11px;font-family:Tahoma;-inkscape-font-specification:Tahoma;writing-mode:lr-tb;fill:#0078d7;fill-opacity:1;fill-rule:nonzero;stroke:none"
           transform="matrix(1,0,0,-1,0,299)"><tspan
             id="tspan82"
             y="0"
             x="0 6.0005002 12.001 15.9995 20.999001 23.9965 28.996 32.994499 38.994999 44.995499 48.993999 50.990501 55.990002 61.990501 67.990997 73.991501 79.991997 84.991501 88.989998 91.987503 97.987999">Persistent connection</tspan></text>
</g><path
         id="path86"
         style="fill:#0078d7;fill-opacity:1;fill-rule:nonzero;stroke:none"
         d="m 115.4998,34 h 4 v -1 h -4 z m 7,-1e-5 h 4 v -1 h -4 z m 7,0 h 4 v -1 h -4 z m 7,0 4,-10e-6 v -1 l -4,10e-6 z m 7,-10e-6 h 4 v -1 h -4 z m 7,0 h 4 v -1 h -4 z m 7,0 4,-1e-5 v -1 l -4,1e-5 z m 7,-1e-5 h 4 v -1 h -4 z m 7,0 h 4 v -1 h -4 z m 7,-10e-6 h 4 v -1 h -4 z m 7,0 h 4 v -1 h -4 z m 7,0 h 4 v -1 h -4 z m 7,-1e-5 h 4 v -1 h -4 z m 7,0 h 4 v -1 h -4 z m 7,0 4,-10e-6 v -1 l -4,10e-6 z m 7,-10e-6 h 4 v -1 h -4 z m 7,0 h 4 v -1 h -4 z m 7,0 4,-1e-5 v -1 l -4,1e-5 z m 7,-1e-5 h 4 v -1 h -4 z m 7,0 h 4 v -1 h -4 z m 7,-10e-6 h 1.1779 v -1 h -1.1779 z M 116.5,30.5 l -6,3 6,3 z m 139.1775,5.99992 6,-3 -6,-3 z" /><g
         transform="translate(113.6411,-252)"
         id="g88"><text
           id="text92"
           style="font-variant:normal;font-weight:normal;font-size:11px;font-family:Tahoma;-inkscape-font-specification:Tahoma;writing-mode:lr-tb;fill:#0078d7;fill-opacity:1;fill-rule:nonzero;stroke:none"
           transform="matrix(1,0,0,-1,0,299)"><tspan
             id="tspan90"
             y="0"
             x="0 7.0004001 12.9998 18.999201 24.9986 30.997999 35.996399 39.993801 42.9902 48.989601 54.988998 57.985401 62.983799 65.980202 71.979599 76.977997 82.977402 88.976799 90.972198 96.971603 101.97 106.9684 112.9678 115.9642 120.9626 123.959 129.9584">Connection closed by 1 side</tspan></text>
</g><g
         transform="translate(279.9798,-282)"
         id="g94"><text
           id="text98"
           style="font-variant:normal;font-weight:normal;font-size:9px;font-family:Tahoma;-inkscape-font-specification:Tahoma;writing-mode:lr-tb;fill:#505050;fill-opacity:1;fill-rule:nonzero;stroke:none"
           transform="matrix(1,0,0,-1,0,299)"><tspan
             id="tspan96"
             y="0"
             x="0 2.9997001 5.0004001 13.0041">time</tspan></text>
</g><path
         id="path100"
         style="fill:#0078d7;fill-opacity:1;fill-rule:nonzero;stroke:none"
         d="m 111.5,217 h 4 v -1 h -4 z m 7,0 h 4 v -1 h -4 z m 7,0 h 4 v -1 h -4 z m 7,0 h 4 v -1 h -4 z m 7,0 h 4 v -1 h -4 z m 7,0 h 4 v -1 h -4 z m 7,0 h 4 v -1 h -4 z m 7,0 h 4 v -1 h -4 z m 7,0 h 4 v -1 h -4 z m 7,0 h 4 v -1 h -4 z m 7,0 h 4 v -1 h -4 z m 7,0 h 4 v -1 h -4 z m 7,0 h 4 v -1 h -4 z m 7,0 h 4 v -1 h -4 z m 7,-1e-4 h 4 v -1 h -4 z m 7,0 h 4 v -1 h -4 z m 7,0 h 4 v -1 h -4 z m 7,0 h 4 v -1 h -4 z m 7,0 h 4 v -1 h -4 z m 7,0 h 4 v -1 h -4 z m 7,0 h 4 v -1 h -4 z m 5.1775,2.5 6,-3 -6,-3 z" /></g></g></svg>